<?xml version="1.0" standalone="no"?>
<!DOCTYPE svg PUBLIC "-//W3C//DTD SVG 20010904//EN"
 "http://www.w3.org/TR/2001/REC-SVG-20010904/DTD/svg10.dtd">
<svg version="1.0" xmlns="http://www.w3.org/2000/svg"
 width="900.000000pt" height="900.000000pt" viewBox="0 0 900.000000 900.000000"
 preserveAspectRatio="xMidYMid meet">
<metadata>
Created by potrace 1.10, written by Peter Selinger 2001-2011
</metadata>
<g transform="translate(0.000000,900.000000) scale(0.100000,-0.100000)"
fill="#3f3c90" stroke="none">
<path d="M4474 6932 c-11 -7 -100 -128 -257 -345 -153 -213 -327 -451 -343
-470 -9 -11 -34 -47 -58 -80 -23 -34 -63 -91 -89 -127 -79 -109 -226 -312
-337 -466 -58 -80 -179 -247 -270 -370 -91 -124 -203 -278 -250 -344 -47 -66
-134 -187 -195 -270 -60 -83 -150 -207 -200 -276 -49 -69 -137 -191 -195 -270
-58 -80 -145 -201 -195 -270 -49 -69 -100 -137 -112 -152 -21 -27 -77 -105
-157 -222 -24 -36 -103 -144 -175 -240 -237 -318 -221 -292 -197 -319 19 -21
28 -21 492 -21 l474 0 37 49 c21 26 45 58 53 71 14 21 43 62 186 265 31 44 78
112 105 150 53 77 128 182 247 348 42 59 109 152 147 207 39 55 93 131 120
170 28 38 84 117 125 176 129 181 220 308 236 327 9 11 34 47 58 80 23 34 63
91 89 127 88 120 162 225 193 270 17 25 59 86 94 135 35 50 96 137 135 195 39
58 93 137 120 175 27 39 64 94 83 123 36 54 67 67 79 35 4 -10 12 -23 17 -30
6 -6 45 -61 86 -122 41 -61 102 -149 135 -195 33 -46 80 -114 105 -150 25 -36
72 -104 105 -150 33 -46 80 -114 105 -150 25 -37 66 -95 93 -131 26 -35 47
-67 47 -70 0 -3 5 -11 10 -18 6 -7 33 -43 60 -82 62 -87 174 -245 305 -426
118 -163 214 -297 235 -328 8 -13 42 -60 75 -105 33 -46 67 -93 75 -105 26
-39 166 -236 330 -465 41 -57 102 -143 135 -190 33 -48 77 -109 98 -136 l37
-50 471 0 c305 0 477 4 490 10 10 6 19 20 19 30 0 11 -60 101 -132 199 -258
349 -313 424 -317 435 -2 6 -9 16 -15 23 -6 6 -54 71 -106 143 -88 122 -267
369 -375 518 -26 35 -72 100 -104 145 -58 82 -156 220 -191 267 -10 14 -51 70
-92 125 -41 55 -89 123 -108 150 -19 28 -38 55 -42 60 -26 31 -169 227 -196
268 -17 26 -36 53 -42 60 -10 12 -172 231 -230 312 -16 22 -83 114 -149 205
-66 91 -162 223 -213 293 -51 70 -106 144 -121 165 -15 20 -61 84 -102 142
-205 290 -493 681 -509 692 -6 4 -13 8 -16 8 -3 0 -10 -4 -16 -8z m44 -147
c12 -14 38 -48 58 -77 21 -29 41 -57 46 -63 48 -58 138 -187 138 -199 0 -8
-26 -50 -57 -93 -32 -43 -89 -124 -126 -181 -38 -56 -75 -102 -82 -102 -7 0
-45 44 -84 98 -39 53 -97 134 -131 179 -33 45 -60 87 -60 93 0 15 75 126 138
205 4 6 22 31 39 57 81 120 86 124 121 83z m320 -437 c19 -19 15 -32 -40 -113
-29 -42 -57 -84 -63 -93 -5 -9 -28 -41 -50 -72 -22 -30 -71 -101 -109 -157
-73 -109 -94 -123 -118 -78 -16 30 -78 120 -134 195 -91 121 -195 283 -192
299 2 9 13 16 27 16 24 0 48 -29 212 -260 114 -160 123 -164 179 -84 19 28 67
95 105 149 39 54 88 124 109 154 41 57 53 65 74 44z m76 -114 c9 -3 26 -22 38
-42 12 -21 39 -60 60 -88 21 -28 38 -54 38 -58 0 -5 -10 -21 -21 -38 -18 -24
-20 -34 -10 -54 9 -21 17 -24 66 -24 54 0 55 -1 96 -52 36 -46 40 -56 34 -87
-4 -20 -12 -45 -19 -56 -20 -33 -39 -102 -33 -119 5 -13 25 -16 111 -16 l106
0 40 -51 c22 -28 40 -57 40 -66 0 -8 -9 -38 -21 -66 -11 -29 -25 -62 -30 -75
-26 -67 -4 -82 125 -82 l95 0 36 -46 c41 -55 42 -67 14 -137 -37 -92 -39 -98
-39 -114 0 -31 32 -42 125 -43 50 -1 98 -4 107 -8 16 -7 161 -194 238 -307 19
-27 38 -54 42 -60 50 -62 168 -232 168 -242 0 -3 -13 -35 -30 -70 -16 -34 -30
-71 -30 -81 0 -28 46 -43 124 -41 70 2 70 2 103 -36 18 -21 33 -44 33 -51 0
-8 -12 -39 -26 -71 -14 -32 -26 -78 -27 -102 -2 -54 7 -59 136 -60 97 -1 108
-7 143 -79 14 -28 15 -38 4 -60 -7 -15 -19 -43 -27 -62 -8 -19 -19 -43 -24
-52 -13 -25 -11 -54 4 -66 6 -6 60 -12 120 -14 105 -3 108 -4 132 -33 40 -48
40 -65 -1 -160 -50 -116 -48 -119 91 -125 l108 -5 29 -36 c24 -29 28 -41 20
-55 -16 -30 -50 -107 -56 -130 -12 -41 16 -54 119 -54 91 0 94 -1 124 -31 17
-17 31 -35 31 -40 0 -5 -107 -9 -259 -9 l-259 0 -38 57 c-22 32 -43 62 -47 68
-11 13 -128 177 -147 205 -8 12 -37 53 -65 91 -27 38 -84 117 -125 175 -41 59
-101 142 -132 185 -32 44 -58 81 -58 84 0 3 -35 53 -77 110 -43 58 -109 150
-148 205 -38 55 -98 138 -132 185 -35 46 -63 87 -63 90 0 3 -5 11 -10 18 -13
14 -129 174 -255 350 -49 70 -144 200 -210 291 -66 91 -140 194 -165 230 -25
37 -52 75 -60 86 -8 10 -30 41 -48 67 -18 26 -58 85 -90 129 -31 45 -64 92
-72 104 -31 45 -111 158 -178 250 -38 52 -77 109 -87 126 l-18 32 43 63 c24
35 73 108 108 162 36 53 67 97 68 97 1 0 9 -3 18 -6z m-808 -31 c46 -63 194
-282 194 -287 0 -7 -80 -126 -139 -207 -35 -49 -118 -165 -141 -199 -29 -43
-130 -186 -190 -270 -33 -47 -94 -132 -135 -190 -166 -232 -235 -329 -350
-486 -131 -180 -321 -446 -375 -524 -36 -53 -134 -192 -194 -275 -36 -49 -105
-145 -153 -212 -48 -67 -95 -132 -103 -144 -15 -22 -55 -78 -175 -249 -38 -55
-104 -146 -145 -202 -42 -57 -86 -120 -99 -140 -15 -25 -30 -38 -44 -39 -136
-3 -484 4 -490 10 -4 4 6 22 21 39 29 32 30 32 123 32 132 0 142 14 89 127
-16 34 -30 70 -30 77 0 8 13 27 28 43 27 26 34 27 131 29 101 2 131 11 131 40
0 8 -13 42 -29 76 -42 89 -46 113 -26 144 39 60 48 64 151 64 97 0 134 10 134
34 0 8 -16 51 -35 96 -37 87 -41 104 -25 123 5 7 21 27 36 45 26 32 26 32 119
32 103 0 121 4 135 29 10 19 -11 85 -51 163 -15 30 -10 52 21 90 29 34 33 36
112 43 46 4 91 11 101 16 21 12 22 41 2 80 -8 16 -22 42 -30 59 -18 34 -16 39
42 117 21 28 45 61 53 74 8 12 56 78 105 146 50 68 117 162 150 209 33 47 70
89 83 95 13 5 61 9 108 9 61 0 92 4 109 16 29 19 31 31 10 71 -30 60 -55 120
-55 135 0 18 45 87 69 105 10 8 52 12 113 13 74 0 100 4 112 16 9 8 16 19 16
24 0 11 -26 72 -47 113 -27 51 -21 90 21 141 l37 46 99 0 c89 0 100 2 113 21
13 18 12 28 -20 101 -40 92 -39 107 13 166 34 40 40 42 90 42 48 0 56 3 65 24
10 20 8 30 -11 56 -19 26 -21 36 -12 56 21 45 117 164 132 164 9 0 25 -12 36
-27z m294 -436 c0 -19 -32 -35 -87 -44 -43 -7 -42 5 4 67 l37 50 23 -28 c12
-15 22 -35 23 -45z m269 17 c21 -29 30 -49 24 -55 -11 -11 -100 8 -109 23 -8
12 27 78 41 78 5 -1 25 -21 44 -46z m-275 -133 c3 -5 -1 -14 -9 -21 -8 -7 -15
-17 -15 -22 0 -5 -19 -33 -41 -64 -49 -63 -62 -61 -78 17 -13 57 -9 69 22 70
12 0 38 7 57 14 43 16 57 18 64 6z m276 -10 c55 -19 55 -19 54 -59 0 -22 -9
-53 -19 -68 -16 -26 -18 -26 -28 -8 -6 10 -30 45 -54 77 -61 79 -52 90 47 58z
m200 -147 c30 -40 39 -59 31 -67 -16 -16 -105 14 -109 37 -6 31 8 86 22 86 8
0 33 -25 56 -56z m-690 27 c28 -53 6 -81 -74 -96 -46 -9 -46 2 1 65 40 54 57
61 73 31z m5 -171 c4 -6 -7 -27 -23 -48 -15 -20 -39 -54 -51 -74 -12 -21 -26
-38 -31 -38 -12 0 -33 58 -34 97 -1 34 1 36 54 53 67 22 77 23 85 10z m705
-16 c43 -11 45 -13 44 -47 -1 -39 -22 -97 -34 -97 -13 0 -111 151 -104 161 3
5 15 7 27 3 12 -4 42 -13 67 -20z m-916 -101 c16 -89 17 -103 4 -107 -7 -2
-39 -11 -70 -21 -32 -9 -62 -14 -68 -10 -6 4 3 23 22 49 18 24 40 54 48 66 38
57 56 63 64 23z m1100 -32 c25 -33 46 -64 46 -69 0 -6 6 -12 13 -15 6 -2 9 -8
5 -12 -5 -5 -34 -3 -65 4 -84 19 -85 19 -80 38 3 10 8 39 12 66 3 26 10 47 15
47 5 0 29 -27 54 -59z m-1111 -177 c3 -3 -13 -34 -36 -69 -41 -62 -67 -82 -67
-50 0 9 -7 30 -16 47 -12 22 -13 33 -4 42 23 24 108 45 123 30z m1164 -19 c21
-14 21 -15 5 -65 -9 -27 -19 -50 -22 -50 -12 0 -99 128 -92 135 10 10 84 -4
109 -20z m-1357 -104 c6 -32 4 -44 -10 -56 -20 -18 -105 -31 -113 -18 -6 10
63 111 86 125 17 10 28 -5 37 -51z m1482 47 c24 -20 78 -99 78 -116 0 -12 -9
-13 -47 -8 -63 8 -83 28 -76 74 6 49 11 62 21 62 4 0 15 -6 24 -12z m-1498
-226 c-36 -57 -76 -102 -90 -102 -13 0 -16 13 -18 81 -1 18 9 25 54 39 30 9
59 15 63 12 4 -2 0 -16 -9 -30z m1531 14 c28 -7 50 -18 49 -25 -1 -6 -2 -23
-3 -38 -1 -16 -6 -35 -11 -43 -9 -12 -16 -8 -44 24 -18 21 -41 52 -50 67 -20
34 -16 35 59 15z m-1722 -87 c14 -62 14 -62 -40 -82 -84 -31 -92 -18 -36 57
26 36 52 64 58 62 5 -1 13 -18 18 -37z m1917 -12 c19 -28 39 -55 44 -58 5 -4
6 -11 2 -17 -6 -10 -111 12 -129 28 -10 9 24 100 38 100 5 0 26 -24 45 -53z
m-1900 -162 c0 -8 -4 -15 -8 -15 -4 0 -25 -27 -46 -60 -52 -82 -82 -73 -85 25
-1 27 4 32 47 46 61 22 92 23 92 4z m1913 -1 c43 -15 47 -19 46 -47 -2 -51
-14 -82 -31 -82 -18 0 -121 129 -111 139 11 10 48 7 96 -10z m-2127 -105 c7
-19 13 -52 13 -74 l1 -40 -57 -17 c-96 -28 -113 -30 -113 -13 0 21 121 186
134 182 5 -2 15 -19 22 -38z m2305 4 c13 -21 40 -61 61 -89 21 -28 38 -54 38
-57 0 -19 -152 11 -175 34 -5 6 13 128 21 141 11 18 34 6 55 -29z m-2343 -245
c-13 -23 -98 -142 -119 -166 -20 -23 -34 -6 -40 49 -4 30 -8 60 -10 67 -5 17
56 52 91 53 14 0 34 4 45 9 37 16 47 13 33 -12z m2416 2 c71 -15 77 -22 70
-89 -9 -96 -12 -103 -34 -91 -11 6 -26 24 -35 39 -8 16 -20 35 -27 43 -20 21
-78 105 -78 113 0 4 12 5 28 1 15 -3 49 -10 76 -16z m-2649 -161 c20 -73 15
-80 -57 -98 -94 -22 -99 -11 -33 78 25 34 45 66 45 71 0 6 6 10 14 10 8 0 20
-24 31 -61z m2844 30 c48 -65 81 -117 81 -129 0 -15 -76 -9 -124 9 -27 11 -28
13 -21 58 8 55 21 93 33 93 4 0 18 -14 31 -31z m-2865 -222 c-1 -9 -23 -46
-50 -82 -52 -71 -48 -71 -73 6 -17 53 -14 69 12 70 12 0 38 7 57 14 41 16 55
14 54 -8z m2916 -1 c36 -8 54 -18 53 -27 -5 -44 -29 -119 -38 -119 -6 0 -19
15 -29 33 -11 17 -32 48 -48 68 -47 62 -38 69 62 45z m-3119 -97 c3 -19 10
-46 14 -62 6 -24 4 -29 -29 -42 -38 -16 -116 -20 -116 -6 0 4 15 28 33 52 18
24 41 57 50 72 23 35 40 30 48 -14z m3319 -36 c28 -36 50 -70 50 -74 0 -20
-132 -1 -145 21 -4 7 4 55 21 118 6 20 19 8 74 -65z m-3326 -165 c-4 -7 -18
-27 -30 -45 -13 -17 -24 -35 -24 -38 0 -4 -14 -26 -32 -49 -17 -22 -33 -43
-35 -45 -10 -14 -22 23 -28 86 l-7 72 39 6 c21 4 49 10 63 15 39 13 62 12 54
-2z m3354 -8 c23 -4 45 -9 48 -12 10 -10 -8 -158 -20 -158 -10 0 -30 25 -103
129 -41 58 -41 65 0 56 17 -4 51 -11 75 -15z m-3574 -154 c21 -96 18 -116 -20
-116 -14 0 -50 -7 -80 -16 -31 -9 -62 -13 -71 -10 -13 5 -11 11 9 39 48 62
118 168 118 178 0 5 6 9 13 9 8 0 20 -32 31 -84z m3736 62 c5 -13 39 -62 75
-111 74 -99 72 -109 -19 -83 -30 9 -62 16 -73 16 -42 1 -47 13 -33 86 14 74
26 114 35 114 3 0 10 -10 15 -22z m-3785 -278 c3 -5 -13 -36 -38 -67 -24 -32
-53 -74 -65 -95 -20 -32 -49 -55 -59 -45 -2 2 -7 41 -11 85 -8 87 -4 102 33
102 11 0 40 7 65 14 55 18 67 19 75 6z m3861 -5 c27 -8 58 -15 69 -15 42 -1
45 -10 34 -105 -5 -49 -11 -91 -14 -93 -6 -7 -40 30 -75 83 -19 28 -36 52 -39
55 -14 12 -51 70 -51 80 0 14 18 13 76 -5z m-4116 -141 c6 -15 13 -60 17 -100
l6 -74 -85 0 c-47 0 -87 3 -91 6 -5 5 26 53 71 109 4 6 18 27 31 48 27 44 38
46 51 11z m4341 4 c6 -13 34 -53 60 -89 27 -37 49 -72 49 -78 0 -7 -29 -11
-85 -11 l-85 0 0 43 c0 37 13 110 25 145 7 19 23 14 36 -10z"/>
<path d="M4435 6634 c-28 -44 -93 -136 -115 -161 -18 -22 -11 -40 52 -125 34
-45 70 -98 81 -115 29 -49 48 -42 104 40 27 39 64 94 83 120 40 56 44 43 -66
195 -80 109 -96 115 -139 46z"/>
<path d="M4827 6013 c-4 -3 -7 -19 -7 -34 0 -50 66 -63 90 -18 17 31 -4 59
-44 59 -18 0 -36 -3 -39 -7z"/>
<path d="M4857 5834 c-21 -21 -6 -55 77 -167 67 -90 95 -90 137 3 9 19 24 51
34 70 9 19 15 49 13 65 l-3 30 -126 3 c-69 1 -128 -1 -132 -4z"/>
<path d="M5083 5494 c-7 -19 -3 -27 71 -134 79 -116 110 -124 150 -36 49 108
58 134 54 157 -3 24 -4 24 -136 27 -117 2 -133 1 -139 -14z"/>
<path d="M5330 5165 c-7 -8 -10 -23 -8 -33 7 -25 128 -187 151 -202 28 -17 59
8 80 66 10 27 25 62 32 77 20 39 19 93 -1 101 -9 3 -66 6 -129 6 -88 0 -115
-3 -125 -15z"/>
<path d="M5605 4843 c-27 -7 -45 -23 -45 -38 0 -6 36 -60 80 -118 112 -149
120 -147 200 37 l34 78 -25 19 c-13 10 -36 19 -50 19 -14 0 -59 2 -100 4 -41
3 -83 2 -94 -1z"/>
<path d="M5928 4564 c-67 -36 -63 -122 5 -139 45 -12 77 2 93 40 18 43 6 78
-35 100 -35 18 -29 18 -63 -1z"/>
<path d="M5972 4268 c-17 -17 -16 -23 23 -80 75 -108 116 -115 160 -28 10 19
22 43 27 54 7 13 6 26 -3 42 -12 23 -18 24 -104 24 -57 0 -95 -4 -103 -12z"/>
<path d="M6173 4025 c-18 -8 -33 -21 -33 -28 0 -18 124 -188 146 -200 19 -11
64 6 64 24 0 6 7 27 16 47 9 21 22 52 30 70 22 51 18 81 -12 92 -38 15 -174
11 -211 -5z"/>
<path d="M6375 3689 c-5 -14 1 -32 20 -57 15 -21 45 -65 68 -100 24 -35 52
-65 64 -68 28 -7 63 12 63 34 0 10 4 22 9 28 5 5 21 37 35 71 20 49 24 68 16
88 l-10 25 -129 0 c-123 0 -130 -1 -136 -21z"/>
<path d="M6611 3361 c-8 -15 -5 -27 17 -58 133 -195 157 -208 204 -110 64 135
67 146 42 171 -12 13 -40 16 -134 16 -107 0 -120 -2 -129 -19z"/>
<path d="M6865 3051 c-16 -3 -31 -14 -33 -23 -4 -21 117 -185 141 -192 33 -8
44 3 87 89 46 91 48 116 10 126 -31 9 -165 9 -205 0z"/>
<path d="M4064 5994 c-5 -19 -1 -31 14 -47 30 -30 76 -14 80 27 4 34 -10 46
-55 46 -27 0 -34 -5 -39 -26z"/>
<path d="M3867 5834 c-15 -15 -6 -65 24 -131 35 -78 54 -103 80 -103 25 0 161
185 157 213 -3 21 -8 22 -129 25 -69 1 -128 -1 -132 -4z"/>
<path d="M3627 5504 c-12 -12 -8 -64 7 -92 7 -15 22 -45 32 -67 49 -105 70
-102 162 22 101 136 101 137 -64 141 -71 1 -133 -1 -137 -4z"/>
<path d="M3385 5156 c-15 -23 -14 -29 24 -118 42 -100 67 -127 98 -108 23 15
144 177 151 202 10 40 -13 48 -139 48 -114 0 -119 -1 -134 -24z"/>
<path d="M3132 4824 c-12 -8 -22 -23 -22 -32 1 -9 22 -60 48 -112 40 -81 51
-95 74 -98 23 -3 36 9 101 95 82 109 88 121 75 146 -8 15 -25 17 -131 17 -95
0 -128 -4 -145 -16z"/>
<path d="M2971 4551 c-38 -35 -40 -69 -6 -105 23 -25 56 -33 90 -20 18 7 45
55 45 79 0 22 -57 75 -80 75 -10 0 -32 -13 -49 -29z"/>
<path d="M2799 4257 c-22 -49 56 -166 103 -153 28 7 121 130 116 154 -3 14
-18 17 -106 20 -99 3 -102 2 -113 -21z"/>
<path d="M2593 4030 c-27 -11 -31 -53 -8 -97 7 -15 23 -49 35 -75 25 -55 42
-72 68 -64 17 6 92 100 135 169 18 29 18 30 -1 49 -15 16 -37 20 -113 24 -52
2 -104 0 -116 -6z"/>
<path d="M2330 3684 c-8 -20 -6 -35 9 -68 11 -22 29 -62 41 -88 11 -25 27 -51
35 -58 22 -18 59 -2 85 38 13 20 41 61 63 90 27 37 37 61 35 80 l-3 27 -128 3
-127 3 -10 -27z"/>
<path d="M2107 3362 c-22 -25 -22 -27 16 -114 40 -93 52 -108 86 -108 21 0 38
17 94 93 49 66 67 99 65 117 -3 25 -3 25 -124 28 -107 2 -122 0 -137 -16z"/>
<path d="M1960 3051 c-67 -5 -75 -8 -78 -28 -7 -47 84 -193 120 -193 14 0 71
63 103 115 16 25 33 45 37 45 4 0 8 13 8 29 0 25 -4 29 -37 35 -21 3 -47 5
-58 4 -11 -1 -54 -4 -95 -7z"/>
<path d="M4478 5103 c-9 -10 -30 -47 -48 -83 -17 -36 -38 -78 -46 -93 -8 -16
-14 -35 -14 -42 0 -8 -6 -29 -14 -47 -8 -18 -21 -60 -29 -93 -42 -167 -47
-210 -47 -403 0 -207 -4 -220 -44 -147 -37 68 -92 148 -129 190 -20 22 -37 43
-37 48 0 4 -7 7 -15 7 -18 0 -19 -18 -3 -176 18 -185 -5 -366 -75 -584 -17
-52 -34 -99 -39 -104 -4 -5 -15 8 -24 30 -19 44 -30 101 -47 253 -7 60 -16
103 -22 101 -11 -3 -62 -116 -75 -165 -5 -16 -13 -43 -19 -60 -31 -91 -43
-193 -38 -330 6 -191 35 -298 118 -439 58 -98 194 -232 279 -272 110 -53 148
-67 165 -60 14 5 9 14 -28 49 -44 41 -117 146 -117 167 0 6 -6 21 -14 33 -7
12 -21 57 -31 99 -20 89 -18 315 4 403 24 97 48 166 57 168 5 1 12 -20 15 -48
12 -89 64 -217 113 -279 l24 -28 33 59 c33 56 48 86 81 163 40 92 67 237 71
379 1 46 6 76 14 78 24 8 132 -257 147 -362 3 -22 10 -60 15 -85 6 -25 10 -91
11 -147 0 -56 4 -104 9 -107 27 -17 127 160 138 247 3 20 9 40 14 42 10 7 49
-67 49 -94 0 -11 7 -46 15 -78 8 -32 15 -100 15 -153 0 -174 -59 -337 -157
-439 -91 -94 -64 -96 116 -7 117 57 256 209 318 346 76 167 88 228 88 447 0
123 -4 196 -11 203 -7 7 -26 -21 -65 -96 -30 -59 -65 -114 -79 -123 -23 -15
-24 -15 -15 4 4 11 10 87 13 169 5 180 -12 291 -76 486 -36 110 -103 227 -123
214 -5 -3 -9 -47 -9 -97 -1 -51 -5 -112 -10 -137 -6 -25 -14 -66 -19 -93 -4
-26 -11 -51 -15 -55 -10 -10 -46 36 -46 58 0 10 -6 31 -14 47 -8 15 -21 44
-29 63 -9 19 -42 91 -75 160 -163 341 -179 396 -188 653 -4 97 -10 177 -14
177 -4 0 -14 -8 -22 -17z"/>
<path d="M3720 2721 c-100 -17 -190 -77 -230 -153 -30 -58 -31 -177 -2 -234
41 -80 130 -141 238 -164 54 -11 65 -10 95 5 40 21 379 354 379 373 0 7 -8 15
-17 18 -56 18 -165 70 -232 111 -82 50 -134 60 -231 44z"/>
<path d="M5110 2723 c-8 -4 -43 -23 -77 -44 -67 -41 -183 -98 -223 -109 -17
-5 -24 -13 -22 -26 6 -27 355 -372 386 -380 57 -14 184 31 255 92 64 55 85
103 85 199 0 70 -4 85 -27 122 -32 50 -93 101 -145 121 -68 26 -195 39 -232
25z"/>
<path d="M1327 2582 c-22 -24 -21 -39 2 -52 27 -14 1435 -14 1462 0 23 13 24
33 3 54 -14 14 -94 16 -733 16 -683 0 -719 -1 -734 -18z"/>
<path d="M2898 2575 c-20 -45 2 -54 130 -56 113 -1 142 6 142 37 0 32 -42 44
-152 44 -106 0 -109 0 -120 -25z"/>
<path d="M5832 2584 c-29 -20 -28 -40 3 -60 35 -23 236 -10 260 16 15 17 15
20 -6 39 -20 19 -35 21 -129 21 -79 0 -111 -4 -128 -16z"/>
<path d="M6195 2580 c-17 -19 -17 -21 0 -40 18 -20 31 -20 730 -20 699 0 712
0 730 20 17 19 17 21 0 40 -18 20 -31 20 -730 20 -699 0 -712 0 -730 -20z"/>
<path d="M4278 2504 c-13 -15 -30 -35 -38 -43 -8 -9 -57 -66 -109 -126 -52
-61 -100 -114 -106 -120 -21 -18 -35 -53 -29 -70 8 -20 52 -38 156 -63 100
-24 167 -33 195 -26 21 6 31 34 68 209 9 44 24 110 32 146 9 37 14 73 10 81
-3 9 -24 18 -49 22 -23 3 -57 9 -75 12 -26 5 -35 1 -55 -22z"/>
<path d="M4593 2516 c-85 -18 -84 -6 -27 -238 8 -32 14 -69 14 -84 0 -46 30
-133 48 -138 33 -11 225 23 310 54 42 15 57 42 41 73 -7 12 -15 24 -19 27 -4
3 -40 43 -80 90 -143 167 -203 230 -219 229 -9 -1 -39 -7 -68 -13z"/>
<path d="M1331 2429 c-21 -20 -21 -22 -5 -40 22 -25 84 -25 114 -1 l23 19 -23
21 c-30 28 -79 29 -109 1z"/>
<path d="M1556 2434 c-35 -35 -10 -64 54 -64 44 1 80 17 80 37 0 38 -102 59
-134 27z"/>
<path d="M1787 2432 c-21 -23 -21 -29 -2 -48 12 -13 108 -15 681 -14 431 0
673 4 685 11 25 13 24 45 0 59 -13 6 -245 10 -684 10 -630 0 -665 -1 -680 -18z"/>
<path d="M5827 2432 c-22 -24 -21 -39 2 -52 26 -14 476 -14 502 0 24 13 24 32
1 53 -16 15 -49 17 -254 17 -215 0 -236 -2 -251 -18z"/>
<path d="M6444 2429 c-14 -15 -16 -24 -7 -37 9 -15 44 -17 383 -17 339 0 374
2 383 17 9 13 7 22 -7 37 -19 20 -28 21 -376 21 -348 0 -357 -1 -376 -21z"/>
<path d="M7305 2430 c-17 -19 -17 -21 0 -40 36 -39 145 -18 128 26 -14 38 -98
47 -128 14z"/>
<path d="M7542 2434 c-12 -8 -22 -20 -22 -26 0 -39 104 -52 136 -17 19 21 18
21 -5 40 -28 23 -79 25 -109 3z"/>
</g>
</svg>
